HIERARCHY
ROOT Hips
{
	OFFSET 0.000000 0.000000 0.000000
	CHANNELS 6 Xposition Yposition Zposition Zrotation Yrotation Xrotation 
	JOINT LHipJoint
	{
		OFFSET 0.000000 0.000000 0.000000
		CHANNELS 3 Zrotation Yrotation Xrotation
		JOINT LeftUpLeg
		{
			OFFSET 1.363060 -1.794630 0.839290
			CHANNELS 3 Zrotation Yrotation Xrotation
			JOINT LeftLeg
			{
				OFFSET 2.448110 -6.726130 0.000000
				CHANNELS 3 Zrotation Yrotation Xrotation
				JOINT LeftFoot
				{
					OFFSET 2.562200 -7.039590 0.000000
					CHANNELS 3 Zrotation Yrotation Xrotation
					JOINT LeftToeBase
					{
						OFFSET 0.157640 -0.433110 2.322550
						CHANNELS 3 Zrotation Yrotation Xrotation
						End Site
						{
							OFFSET 0.000000 0.000000 0.000000
						}
					}
				}
			}
		}
	}
	JOINT RHipJoint
	{
		OFFSET 0.000000 0.000000 0.000000
		CHANNELS 3 Zrotation Yrotation Xrotation
		JOINT RightUpLeg
		{
			OFFSET -1.305520 -1.794630 0.839290
			CHANNELS 3 Zrotation Yrotation Xrotation
			JOINT RightLeg
			{
				OFFSET -2.542530 -6.985550 0.000000
				CHANNELS 3 Zrotation Yrotation Xrotation
				JOINT RightFoot
				{
					OFFSET -2.568260 -7.056230 0.000000
					CHANNELS 3 Zrotation Yrotation Xrotation
					JOINT RightToeBase
					{
						OFFSET -0.164730 -0.452590 2.363150
						CHANNELS 3 Zrotation Yrotation Xrotation
						End Site
						{
							OFFSET 0.000000 0.000000 0.000000
						}
					}
				}
			}
		}
	}
}
MOTION
Frames: 22
Frame Time: 0.008333
24.302466 16.747025 4.124657 -163.896604 -85.864714 -170.333139 -12.590767 5.392578 1.662227 -3.045261 13.167256 -7.531214 -0.840768 0.681049 18.405679 0.932414 1.972615 22.162431 0.534899 0.000000 -86.789600 8.272656 -1.676582 5.206524 11.652389 5.645206 -49.101915 3.206792 -1.848838 33.229482 0.519913 6.570237 -11.170385 -0.018200 0.000000 -35.940500
24.128983 16.720130 4.089808 -161.878270 -86.067495 -172.513284 -12.596678 5.399642 1.711200 -2.607582 13.102470 -7.514434 -0.719120 0.718713 19.407120 1.005713 1.939655 23.067687 0.495000 -0.000000 -85.694100 8.292381 -1.697630 5.172299 11.719140 5.845573 -48.758456 3.094951 -1.952725 34.767337 0.377372 6.270227 -12.480096 -0.071899 0.000000 -34.047200
23.956273 16.699049 4.055479 -159.063548 -86.299568 -175.480271 -12.604870 5.373678 1.746349 -2.142244 13.054718 -7.585834 -0.586989 0.748618 20.486925 1.091297 1.964477 24.078472 0.480499 -0.000000 -84.167200 8.296286 -1.747749 5.157672 11.837936 6.081204 -48.265711 3.009614 -2.019599 35.940174 0.209942 5.825835 -13.743291 -0.101000 -0.000001 -32.903200
23.784776 16.683815 4.021094 -155.612831 -86.568941 -179.074066 -12.617914 5.315678 1.774072 -1.674237 12.998758 -7.745085 -0.446283 0.768703 21.636742 1.188854 2.070623 25.166122 0.506400 -0.000000 -82.089800 8.282253 -1.825172 5.159711 11.990240 6.331034 -47.633918 2.948278 -2.052157 36.745036 0.022603 5.257843 -14.925876 -0.098100 0.000000 -32.421000
23.613943 16.674174 3.986196 -151.644702 -86.883435 176.823735 -12.638231 5.228756 1.800554 -1.227773 12.909394 -7.986428 -0.300131 0.777892 22.846850 1.296403 2.275773 26.282545 0.586600 -0.000000 -79.397701 8.249396 -1.925595 5.173215 12.156411 6.572059 -46.873673 2.906924 -2.053448 37.200779 -0.178476 4.595036 -16.002487 -0.061200 0.000000 -32.427800
23.444122 16.669801 3.950497 -147.093139 -87.254838 172.143338 -12.669200 5.114858 1.830217 -0.819430 12.765870 -8.300362 -0.151080 0.775612 24.105468 1.410463 2.590053 27.369080 0.732000 -0.000000 -76.156999 8.195968 -2.046316 5.192634 12.319988 6.784433 -45.994795 2.881556 -2.027361 37.338479 -0.386885 3.867529 -16.955998 0.006800 0.000000 -32.705900
23.274956 16.670270 3.913708 -141.846779 -87.693117 166.769973 -12.715552 4.978665 1.867764 -0.471631 12.547250 -8.677612 -0.002235 0.762831 25.400765 1.526590 3.019311 28.357483 0.950300 -0.000000 -72.468600 8.120274 -2.182606 5.211737 12.459863 6.947453 -45.013082 2.867335 -1.977915 37.204594 -0.595092 3.110571 -17.777284 0.098900 0.000000 -33.042400
23.106498 16.675057 3.875511 -135.640769 -88.207078 160.439187 -12.785481 4.827133 1.917038 -0.209119 12.240242 -9.111761 0.142753 0.742162 26.724414 1.639488 3.557911 29.173150 1.240800 -0.000000 -68.395200 8.019040 -2.328948 5.223879 12.551959 7.040529 -43.948689 2.859345 -1.908920 36.855940 -0.795197 2.361703 -18.466789 0.206000 0.000000 -33.258800
22.938844 16.683756 3.835967 -127.618834 -88.807539 152.289369 -12.901329 4.664803 1.980628 -0.050276 11.840970 -9.594090 0.282632 0.716510 28.061095 1.745761 4.198101 29.764992 1.597599 0.000000 -64.232400 7.875499 -2.484022 5.221941 12.577877 7.051819 -42.817113 2.853826 -1.823170 36.346691 -0.980924 1.651394 -19.030341 0.318699 0.000000 -33.239101
22.771618 16.695948 3.795183 -115.937441 -89.495916 140.481301 -13.108669 4.506847 2.063332 -0.022221 11.359091 -10.120484 0.410625 0.693945 29.390881 1.845100 4.929355 30.097037 2.008500 -0.000001 -60.256101 7.654306 -2.636584 5.194611 12.515561 6.979889 -41.629706 2.844880 -1.715883 35.733404 -1.146855 1.010028 -19.477955 0.429300 -0.000000 -32.936500
22.604864 16.711332 3.753375 83.462555 -89.760894 -59.035532 -13.470885 4.412542 2.171979 -0.163652 10.842045 -10.701002 0.492356 0.705508 30.688886 1.942159 5.734312 30.128399 2.450400 0.000000 -56.510000 7.310743 -2.721561 5.116607 12.346712 6.858310 -40.380241 2.816614 -1.559544 35.081640 -1.287397 0.474040 -19.814701 0.531699 0.000000 -32.365600
22.438858 16.729742 3.710919 115.588312 -89.073228 -91.238106 -13.877529 4.548464 2.305923 -0.461950 10.379733 -11.358613 0.428773 0.832307 31.890099 2.052171 6.629878 29.887635 2.918600 -0.000000 -53.595501 6.970683 -2.523808 4.950349 12.136526 6.807241 -39.024180 2.734839 -1.292999 34.448364 -1.394266 0.081462 -20.022326 0.622700 -0.000000 -31.585600
22.266936 16.751359 3.677014 162.883497 -89.438984 -138.341218 -13.565328 5.039895 2.656060 -0.179954 9.262274 -12.709259 0.161731 1.138053 33.451828 2.166929 7.446144 29.177271 3.291000 0.000000 -51.058300 7.304151 -1.836864 4.689584 12.741594 6.332297 -37.695266 2.666109 -0.890984 33.511061 -1.494213 -0.316413 -20.045718 0.720500 0.000000 -30.563700
22.101854 16.774995 3.634206 173.903230 -89.930090 -149.457673 -13.130612 5.060159 2.704923 -0.249442 8.684186 -13.376919 0.148837 1.211874 34.681162 2.207181 8.357559 28.396219 3.745700 -0.000000 -49.536200 7.690639 -1.720231 4.634399 12.743309 6.084926 -36.375712 2.641474 -0.760817 32.618677 -1.566424 -0.685192 -20.137272 0.785100 0.000000 -29.660900
21.937190 16.801024 3.591571 2.032973 -89.452797 22.285470 -12.757318 5.005880 2.737749 -0.387167 8.110984 -14.038648 0.175867 1.252263 35.872524 2.230393 9.262917 27.349636 4.159200 0.000000 -48.328600 8.015303 -1.706708 4.583431 12.687299 5.728552 -35.059752 2.635068 -0.659231 31.665966 -1.623057 -0.999820 -20.194329 0.836700 -0.000000 -28.842200
21.773341 16.829178 3.549302 8.249231 -88.816509 15.919701 -12.464426 4.913211 2.756271 -0.602927 7.580080 -14.686599 0.218251 1.275319 36.978784 2.247186 10.172766 26.110940 4.532400 0.000000 -47.720300 8.267933 -1.747607 4.523156 12.579697 5.302626 -33.726222 2.638012 -0.565819 30.655939 -1.663387 -1.254989 -20.203919 0.874900 -0.000000 -28.212600
21.609730 16.859178 3.507739 13.110975 -88.227050 10.898763 -12.242280 4.805198 2.760268 -0.882498 7.128950 -15.329541 0.258721 1.292052 37.978311 2.262061 11.074845 24.716820 4.853800 -0.000000 -47.532400 8.459157 -1.812615 4.454087 12.442341 4.847846 -32.371699 2.645308 -0.469569 29.582238 -1.687439 -1.456115 -20.142990 0.898800 -0.000000 -27.859900
21.446294 16.890607 3.466843 17.119431 -87.711353 6.720444 -12.069444 4.691978 2.745875 -1.212504 6.778699 -15.956199 0.289378 1.306467 38.850604 2.278029 11.959741 23.219018 5.118700 -0.000000 -47.651800 8.608770 -1.886817 4.376244 12.287538 4.382426 -30.985613 2.654688 -0.367714 28.436549 -1.693777 -1.604238 -19.992749 0.906500 0.000000 -27.833700
21.283359 16.923058 3.426578 20.617413 -87.279179 3.042188 -11.930463 4.577109 2.711193 -1.582265 6.539363 -16.559609 0.307274 1.319089 39.584210 2.296537 12.814343 21.663900 5.324000 0.000000 -47.925700 8.730722 -1.965317 4.291916 12.122241 3.917611 -29.568139 2.664914 -0.261397 27.218835 -1.679980 -1.696585 -19.731974 0.895201 -0.000000 -28.157100
21.120625 16.955983 3.386878 23.856364 -86.930973 -0.384827 -11.815482 4.461792 2.655725 -1.984242 6.414950 -17.139554 0.311334 1.329630 40.179758 2.316705 13.616509 20.076478 5.461600 -0.000000 -48.035700 8.834114 -2.047645 4.204430 11.948542 3.461103 -28.127259 2.675041 -0.153474 25.937743 -1.643453 -1.727667 -19.341738 0.862101 0.000000 -28.817800
20.957766 16.988863 3.347662 27.051179 -86.661554 -3.770640 -11.718197 4.345730 2.583124 -2.416353 6.391860 -17.695833 0.303127 1.335890 40.633342 2.339984 14.363120 18.517449 5.542201 -0.000000 -48.109800 8.925289 -2.134670 4.116528 11.763602 3.016690 -26.678452 2.684202 -0.048081 24.613649 -1.581684 -1.688470 -18.809307 0.805700 -0.000000 -29.769100
20.794844 17.021204 3.308816 30.383508 -86.461766 -7.293880 -11.635198 4.229454 2.494995 -2.877738 6.462568 -18.235704 0.282748 1.338258 40.964008 2.362633 15.025467 16.979463 5.555200 -0.000000 -47.755000 9.008154 -2.227520 4.030103 11.562437 2.585237 -25.239074 2.691761 0.050162 23.275600 -1.492987 -1.568333 -18.131432 0.726200 0.000001 -30.939000
